<?xml version="1.0" encoding="UTF-8"?>
<!DOCTYPE svg PUBLIC "-//W3C//DTD SVG 1.1//EN" "http://www.w3.org/Graphics/SVG/1.1/DTD/svg11.dtd">
<!-- Creator: CorelDRAW -->
<svg xmlns="http://www.w3.org/2000/svg" xml:space="preserve" width="152.84mm" height="85.6091mm" version="1.1" style="shape-rendering:geometricPrecision; text-rendering:geometricPrecision; image-rendering:optimizeQuality; fill-rule:evenodd; clip-rule:evenodd"
viewBox="0 0 15269.79 8552.92"
 xmlns:xlink="http://www.w3.org/1999/xlink"
 xmlns:xodm="http://www.corel.com/coreldraw/odm/2003">
 <defs>
  <style type="text/css">
   <![CDATA[
    .fil6 {fill:#444648;fill-rule:nonzero}
    .fil5 {fill:url(#id0)}
    .fil3 {fill:url(#id1)}
    .fil0 {fill:url(#id2)}
    .fil2 {fill:url(#id3)}
    .fil4 {fill:url(#id4)}
    .fil1 {fill:url(#id5)}
   ]]>
  </style>
  <linearGradient id="id0" gradientUnits="userSpaceOnUse" x1="5512.58" y1="3009.83" x2="7366.26" y2="1356.46">
   <stop offset="0" style="stop-opacity:1; stop-color:#A53467"/>
   <stop offset="0.501961" style="stop-opacity:1; stop-color:#B72E73"/>
   <stop offset="1" style="stop-opacity:1; stop-color:#DE4190"/>
  </linearGradient>
  <linearGradient id="id1" gradientUnits="userSpaceOnUse" x1="9892.99" y1="4287.63" x2="4076.34" y2="4287.63">
   <stop offset="0" style="stop-opacity:1; stop-color:#12A6C2"/>
   <stop offset="0.380392" style="stop-opacity:1; stop-color:#15BCD0"/>
   <stop offset="1" style="stop-opacity:1; stop-color:#18D2DF"/>
  </linearGradient>
  <linearGradient id="id2" gradientUnits="userSpaceOnUse" xlink:href="#id1" x1="10229.3" y1="3497.14" x2="12507.15" y2="-157.38">
  </linearGradient>
  <linearGradient id="id3" gradientUnits="userSpaceOnUse" xlink:href="#id0" x1="11179.88" y1="299.86" x2="9575.33" y2="853.69">
  </linearGradient>
  <radialGradient id="id4" gradientUnits="userSpaceOnUse" gradientTransform="matrix(1.43534 -0 -0 1.51515 -3298 -613)" cx="7575.19" cy="1189.19" r="1028.79" fx="7575.19" fy="1189.19">
   <stop offset="0" style="stop-opacity:1; stop-color:#FFB901"/>
   <stop offset="0.6" style="stop-opacity:1; stop-color:#FFA702"/>
   <stop offset="1" style="stop-opacity:1; stop-color:#FF9602"/>
  </radialGradient>
  <radialGradient id="id5" gradientUnits="userSpaceOnUse" gradientTransform="matrix(-0.601093 1.12398 1.09901 0.685007 14021 -10290)" xlink:href="#id4" cx="9430.23" cy="980.57" r="840.38" fx="9430.23" fy="980.57">
  </radialGradient>
 </defs>
 <g id="Camada_x0020_1">
  <metadata id="CorelCorpID_0Corel-Layer"/>
  <g id="_2499430278688">
   <path class="fil0" d="M12119.16 0.99c213.49,-0.33 426.98,-0.66 640.47,-0.99 -598.7,1119.5 -1197.4,2239.01 -1796.11,3358.51 -222.16,320.32 -729.91,338.74 -932.13,-117.61 513.66,-960.47 1027.31,-1920.96 1540.97,-2881.43 109.19,-238.99 297.21,-339.57 546.8,-358.49z"/>
   <path class="fil1" d="M10499.13 2366.3l-467.73 874.6 -1095.09 -2056.12c-183.27,-353.06 103.63,-856.89 487.55,-841.37l1075.27 2022.89z"/>
   <polygon class="fil2" points="11104.98,1233.42 11572.37,359.47 9423.86,343.41 9901.52,1242.01 "/>
  </g>
  <g id="_2499430278496">
   <path class="fil3" d="M4535.1 4098.49c-152.92,284.98 -305.82,569.98 -458.75,854.96 1711.05,0 3422.1,0 5133.16,0 525.92,-67.96 909.81,-733.15 531.18,-1329.37 -1468,0 -2935.99,0 -4403.99,0 -351.96,-24.87 -601.6,154.48 -801.6,474.41z"/>
   <path class="fil4" d="M8403.93 3624.09l1336.75 0 -1574.51 -2932.1c-273.77,-497.1 -1056.3,-473.78 -1312.82,50.23l1550.58 2881.87z"/>
   <polygon class="fil5" points="6672.45,3624.09 5336.7,3624.09 6853.35,742.22 7542.15,2022.39 "/>
  </g>
  <path class="fil6" d="M4638.34 6189.56c-28.39,0 -55.81,1.64 -82.18,4.95 -26.24,3.3 -51.67,8.23 -76.23,14.82l-0.02 -0.08c-24.98,6.88 -50.97,16.17 -77.89,27.94 -18.73,8.17 -37.89,17.57 -57.5,28.21l0 814.37c10.02,8.22 21.3,16.05 33.85,23.48 20.42,12.1 43.87,22.96 70.33,32.55l0.19 0.2c25.88,9.46 54.71,16.62 86.43,21.52 31.57,4.89 65.91,7.3 103.01,7.3 51.48,0 95.83,-10.72 132.99,-32.14 36.89,-21.26 67.94,-53.74 93.08,-97.36 27.07,-46.88 47.47,-100.83 61.2,-161.92 13.99,-62.25 20.97,-131.86 20.97,-208.88 0,-80.99 -7.36,-151.68 -22.14,-212.06 -14.32,-58.54 -35.56,-107.81 -63.72,-147.85 -27.06,-38.71 -58.83,-67.55 -95.2,-86.47 -36.6,-19.03 -79.03,-28.57 -127.18,-28.57zm-313.99 -211.44l3.72 25.37 0.76 5.18c20.01,-9.57 39.55,-18.5 58.61,-26.79 36.93,-16.07 70.99,-29.11 102.1,-39.08l0.19 -0.21c31.89,-10.15 63.86,-17.82 95.81,-22.92 32.11,-5.14 64.18,-7.72 96.11,-7.72 89.92,0 170.05,17.63 240.37,52.85 71.03,35.57 131.2,88.71 180.46,159.31 47.97,68.43 83.93,148.54 107.88,240.39l0 -187.91 0.18 0c-0.8,-53.34 -1.84,-96.02 -3.08,-128.09 -1.13,-28.88 -2.26,-46.2 -3.37,-51.96l-12.14 -62.74 60.43 0 179.88 0 37.51 0 10 38.62c3.65,14.06 6.57,29.02 8.83,44.93 2.26,15.84 4.13,33.73 5.68,53.59l0.01 0c0.56,7.22 1.1,15.31 1.58,24.25 7.71,-7.18 15.54,-14.18 23.48,-20.99 38.98,-33.43 80.7,-62.43 125.08,-87.09l0.2 -0.2c45.04,-24.8 91.3,-43.51 138.71,-56.05 47.53,-12.58 95.84,-18.9 144.82,-18.9 5.74,0 12.31,0.29 19.6,0.87l0.19 0c6.28,0.49 13.04,1.29 20.17,2.37l-0.01 0.06c7.06,1.03 12.95,2.02 17.6,2.97 6.08,1.21 11.41,2.58 15.93,4.06l42.77 13.97 -8.96 46.32 -7.09 36.63c29.97,-20.86 61.65,-38.7 95.03,-53.5 80.68,-35.78 170.82,-53.73 270.29,-53.73 101.95,0 192.86,18.64 272.71,55.98 80.83,37.8 149.71,94.48 206.57,170.04 55.35,73.31 96.88,155.95 124.65,247.83 4.28,14.16 8.22,28.52 11.84,43.07l0 -239.19 0.15 0c-0.78,-26.74 -2.1,-57.22 -3.99,-91.55 -1.68,-30.76 -4.07,-66.77 -7.11,-107.93l-4.19 -56.41 53.44 0 182.77 0 42.18 0 6.5 44.35 3.72 25.37 0.76 5.18c20.01,-9.57 39.55,-18.5 58.62,-26.8 36.92,-16.07 70.97,-29.1 102.09,-39.07l0.19 -0.21c31.89,-10.15 63.86,-17.82 95.8,-22.92 32.12,-5.14 64.19,-7.72 96.12,-7.72 89.92,0 170.05,17.63 240.37,52.85 71.03,35.57 131.19,88.7 180.46,159.31 48.18,68.72 84.24,149.21 108.18,241.52 23.56,90.87 35.36,192.53 35.36,305.03 0,25.63 -0.74,50.77 -2.21,75.44 10.16,-13.63 21.17,-26.73 33.03,-39.28 39.58,-42.15 85.96,-78.32 138.97,-108.63 51.8,-29.62 110.37,-53.78 175.57,-72.6l0.19 -0.21c63.33,-18.12 130.63,-31.71 201.82,-40.74 55.89,-7.08 114.06,-11.4 174.47,-12.91l0 -55.76c0,-51.49 -4.91,-93.95 -14.71,-127.29 -8.55,-29.07 -20.55,-50.63 -35.98,-64.59 -17.67,-15.99 -38.27,-28.05 -61.79,-36.18 -24.58,-8.49 -52.72,-12.75 -84.38,-12.75 -42.76,0 -82.66,4.67 -119.74,13.92 -36.63,9.14 -70.74,22.8 -102.37,40.91l-0.19 0c-33.96,19.23 -63.11,37.39 -87.42,54.34 -23.38,16.3 -42.42,31.68 -57.07,46.01l-39.39 38.51 -33.04 -45.06 -100.26 -136.74 -26.07 -35.55 29.53 -32.51c23.61,-25.98 53.92,-50.84 90.94,-74.67 36,-23.17 78,-45.37 126.01,-66.7l0.19 0c49.49,-21.89 101.31,-38.32 155.45,-49.26 54.15,-10.94 110.28,-16.41 168.37,-16.41 70.29,0 134.26,9.73 191.85,29.2 58.78,19.87 110.13,49.69 153.99,89.44l0.01 -0.02c45.5,40.65 79.62,89.58 102.43,146.68 22.41,56.09 33.56,119.09 33.56,188.91l0 615.53c0,51.2 1.86,92.18 5.52,122.91 3.26,27.37 7.48,46.06 12.63,55.98l0.19 0.4c3.2,6.25 7.34,10.76 12.42,13.52 6.96,3.78 16.95,5.63 29.94,5.63 13.37,0 26.03,-0.56 37.63,-1.78l5.44 -0.61c-0.97,-1.82 -1.93,-3.66 -2.86,-5.51l0.07 -0.03c-7.35,-14.45 -12.78,-30.23 -16.37,-47.39 -3.49,-16.64 -5.18,-33.59 -5.18,-50.93 0,-20.63 3.02,-40.81 9.04,-60.36 5.94,-19.29 14.76,-37.55 26.43,-54.61l0.04 0.03c10.06,-14.91 21.19,-29.07 33.47,-42.39 12.23,-13.26 25.7,-25.77 40.47,-37.43 14.46,-11.79 28.95,-22.3 43.45,-31.57 12.02,-7.68 24.56,-14.88 37.55,-21.58 -6.6,-6.02 -13.02,-12.2 -19.23,-18.53 -28.77,-29.37 -53.04,-62.14 -72.78,-98.44l-0.08 0.05c-19.79,-36.17 -34.59,-76.81 -44.37,-121.68 -9.58,-43.98 -14.39,-91.72 -14.39,-143.01 0,-42.21 4.17,-82.69 12.42,-121.31 8.32,-38.99 20.8,-75.43 37.35,-109.24l0 -0.2c16.19,-32.89 35.1,-63.46 56.71,-91.68 21.25,-27.75 45.22,-52.96 71.94,-75.58l0.2 -0.21c26.42,-22.14 54.49,-41.54 84.18,-58.13 29.46,-16.46 60.97,-30.46 94.48,-41.9l-0.02 -0.06c32.7,-11.23 66.07,-19.71 100.1,-25.43 34.45,-5.79 68.6,-8.68 102.47,-8.68 29.24,0 59.14,2.27 89.63,6.74 29.6,4.34 59.63,10.95 89.99,19.76 30.77,8.92 59.91,19.86 87.42,32.72 20.64,9.65 40.88,20.59 60.69,32.77 25.11,-9.64 49.97,-18.07 74.6,-25.3 32.08,-9.41 63.89,-16.79 95.39,-22.13l-0.02 -0.07c30.89,-5.48 60.66,-9.48 89.15,-12.06 30.14,-2.74 59.3,-4.05 87.3,-4.05l56.66 0 -7.78 59.47 -1.75 13.36c22.54,-12.12 46.85,-23.96 72.92,-35.55l0.19 0c49.5,-21.89 101.32,-38.32 155.45,-49.26 54.16,-10.94 110.29,-16.41 168.38,-16.41 70.28,0 134.26,9.73 191.85,29.2 58.78,19.87 110.13,49.69 153.98,89.44l0.02 -0.02c45.51,40.65 79.62,89.58 102.42,146.68 22.41,56.09 33.56,119.09 33.56,188.91l0 615.53c0,51.2 1.87,92.17 5.52,122.9 3.27,27.38 7.49,46.08 12.63,55.99l0.2 0.4c3.2,6.25 7.34,10.76 12.42,13.52 6.96,3.78 16.95,5.63 29.93,5.63 13.38,0 26.03,-0.56 37.63,-1.78 10.63,-1.11 21.28,-2.72 31.86,-4.89l0 -1009.56c0,-53.48 -3.59,-110.79 -10.74,-171.46l-6.92 -58.66 55.99 0 177.81 0 40.03 0 8.26 41.69c3.28,16.58 6.01,34.1 8.27,52.6 8.79,-5.37 17.74,-10.64 26.85,-15.78 35.25,-19.86 71.88,-37.42 109.83,-52.76l0.39 0c40.27,-15.97 81.33,-27.9 123.15,-35.75 42,-7.87 85.09,-11.85 129.22,-11.85 73.16,0 138.66,10.52 196.35,31.57l0.06 -0.18c59.13,21.58 109.48,54.31 150.88,98.16 41.36,43.61 72.36,96.07 92.92,157.35 20.03,59.7 30.08,127.44 30.08,203.14l0 34.08c4.08,-16.13 8.56,-32.04 13.48,-47.71 29.02,-92.51 72.59,-175.85 130.71,-249.81l-0.11 -0.1c59.14,-75.49 128.04,-132.15 206.65,-169.99 78.29,-37.69 165.69,-56.52 262.14,-56.52 59.18,0 118.25,6.23 177.27,18.65 35.97,7.57 72.06,17.53 108.28,29.86l0 -597.74 0 -52.32 49.46 0 191.02 0 49.45 0 0 52.32 0 1569.17 0.02 10.66c5.12,-29.9 12.68,-58.51 22.69,-85.8 20.67,-56.4 51.57,-106.4 92.69,-149.94 39.58,-42.15 85.96,-78.32 138.96,-108.63 51.81,-29.62 110.38,-53.78 175.58,-72.6l0.19 -0.21c63.34,-18.12 130.64,-31.71 201.81,-40.74 55.9,-7.08 114.06,-11.4 174.48,-12.91l0 -55.76c0,-51.49 -4.91,-93.95 -14.71,-127.29 -8.55,-29.07 -20.56,-50.63 -35.99,-64.59 -17.67,-16 -38.27,-28.06 -61.78,-36.19 -24.57,-8.48 -52.71,-12.74 -84.38,-12.74 -42.76,0 -82.66,4.67 -119.74,13.92 -36.63,9.14 -70.74,22.8 -102.37,40.91l-0.19 0c-33.96,19.23 -63.11,37.39 -87.42,54.34 -23.38,16.3 -42.42,31.68 -57.07,46.01l-39.4 38.51 -33.04 -45.06 -100.25 -136.74 -26.07 -35.55 29.54 -32.51c23.59,-25.98 53.92,-50.84 90.93,-74.67 35.99,-23.17 78,-45.37 126,-66.7l0.2 0c49.49,-21.89 101.31,-38.32 155.44,-49.26 54.16,-10.94 110.28,-16.41 168.38,-16.41 70.28,0 134.26,9.73 191.86,29.2 58.77,19.87 110.13,49.69 153.98,89.44l0.01 -0.02c45.51,40.65 79.63,89.58 102.43,146.68 22.41,56.09 33.56,119.09 33.56,188.91l0 615.53c0,51.2 1.86,92.17 5.51,122.9 3.27,27.38 7.49,46.08 12.63,55.99l0.2 0.4c3.2,6.25 7.34,10.76 12.42,13.52 6.96,3.78 16.95,5.63 29.94,5.63 13.37,0 26.02,-0.56 37.63,-1.78 11.96,-1.25 23.97,-3.14 35.85,-5.72l42.55 -9.29 14.06 43.62 30.11 93.48 9.97 30.97 -22.14 22.99c-14.06,14.6 -30.74,27.49 -49.96,38.67 -17.8,10.34 -38.5,19.52 -61.98,27.47l0.02 0.06c-22.2,7.58 -44.47,13.36 -66.57,17.21 -22.69,3.96 -44.8,5.97 -66.09,5.97 -28.9,0 -56.42,-5.84 -82.6,-17.46l0.02 -0.08c-25.48,-11.33 -49.3,-27.98 -71.5,-49.86 -23.56,-23.22 -42.19,-53.97 -55.93,-92.23 -3.27,-9.1 -6.26,-18.65 -8.99,-28.68 -16.34,15.65 -32.98,30.31 -49.89,43.95 -39.1,31.51 -80.18,58.03 -123.08,79.34l0.03 0.08c-42.72,21.44 -87.32,37.65 -133.7,48.55 -46.44,10.91 -93.76,16.4 -141.92,16.4 -58.75,0 -112.32,-8.51 -160.56,-25.51 -49.56,-17.46 -92.65,-43.62 -129.1,-78.42 -37.31,-35.63 -65.36,-79.01 -84.06,-130.22 -2.02,-5.54 -3.93,-11.17 -5.73,-16.87 3.74,22.06 8.81,44.53 15.22,67.39 8.02,28.66 18.01,57.97 29.94,87.92l28.9 72.55 -74.3 0 -162.97 0 -24.03 0 -15 -20.64c-21.12,-29.08 -38.61,-60.02 -52.4,-92.71 -3.75,-8.9 -7.24,-17.93 -10.47,-27.08 -17.53,14.32 -35.28,27.8 -53.25,40.46 -36.79,25.89 -74.32,48.07 -112.55,66.45l-0.04 -0.1c-38.78,18.74 -78.48,32.89 -118.97,42.34 -41.08,9.61 -82.33,14.45 -123.65,14.45 -77.64,0 -150.06,-17.35 -217.21,-52.1 -66.36,-34.36 -126.59,-85.36 -180.64,-153.04 -53.79,-67.39 -94.08,-147.54 -120.87,-240.42 -3.42,-11.82 -6.59,-23.85 -9.56,-36.06l0 406.13 0 52.32 -49.46 0 -191.02 0 -49.45 0 0 -52.32 0 -933.12c0,-42.45 -4.28,-79.76 -12.72,-111.95 -8.09,-30.84 -20.05,-57.47 -35.76,-79.86l-0.06 0.05c-14.25,-20.01 -32.81,-35.09 -55.65,-45.17 -24.98,-11.03 -55.61,-16.55 -91.85,-16.55 -32.44,0 -64.85,2.71 -97.19,8.14 -32.92,5.53 -66.6,13.92 -101.04,25.17l0.02 0.06c-34.89,11.47 -67.74,24.51 -98.36,39.12 -21.07,10.06 -41.08,20.87 -59.95,32.43l0 1081.67 0 52.32 -49.45 0 -191.03 0 -49.45 0 0 -13.05c-10.42,4.62 -21.55,8.94 -33.41,12.96l0.02 0.06c-22.19,7.58 -44.45,13.36 -66.56,17.21 -22.7,3.96 -44.81,5.97 -66.09,5.97 -28.9,0 -56.42,-5.84 -82.61,-17.46l0.03 -0.08c-25.49,-11.33 -49.31,-27.98 -71.5,-49.86 -23.56,-23.22 -42.19,-53.98 -55.93,-92.23 -3.27,-9.1 -6.25,-18.66 -8.98,-28.68 -16.35,15.66 -33,30.31 -49.91,43.95 -39.09,31.51 -80.17,58.03 -123.07,79.34l0.03 0.08c-42.73,21.44 -87.32,37.65 -133.7,48.54 -46.43,10.92 -93.77,16.41 -141.92,16.41 -58.75,0 -112.33,-8.51 -160.56,-25.51 -49.56,-17.46 -92.65,-43.61 -129.09,-78.42 -37.32,-35.63 -65.37,-79.01 -84.07,-130.22 -18.14,-49.69 -27.25,-105.99 -27.25,-168.97 0,-66.73 10.24,-128.06 30.72,-183.92 20.68,-56.4 51.58,-106.4 92.69,-149.94 39.59,-42.15 85.96,-78.32 138.98,-108.63 51.79,-29.62 110.37,-53.78 175.56,-72.6l0.2 -0.21c63.34,-18.12 130.64,-31.71 201.81,-40.74 55.9,-7.08 114.06,-11.4 174.47,-12.91l0 -55.76c0,-97.22 -16.89,-161.32 -50.67,-191.88 -17.67,-15.99 -38.28,-28.06 -61.79,-36.19 -24.58,-8.48 -52.71,-12.74 -84.38,-12.74 -42.75,0 -82.66,4.67 -119.74,13.92 -36.63,9.14 -70.74,22.8 -102.36,40.91l-0.2 0c-33.96,19.23 -63.11,37.39 -87.42,54.34 -23.38,16.3 -42.42,31.68 -57.07,46.01l-39.39 38.51 -33.04 -45.06 -85.96 -117.24 -18.01 -0.58 0 -0.01c-14.23,-0.38 -28.29,-0.17 -42.12,0.57 -13.34,0.72 -26.19,1.99 -38.51,3.75l0.02 0.09c-4.6,0.72 -9.09,1.5 -13.47,2.3 8.64,19.02 16.38,38.54 23.17,58.61 8.04,23.81 14.09,49.47 18.09,77.09 3.9,26.81 5.84,55.29 5.84,85.52 0,45.31 -3.73,87.72 -11.18,127.3l-0.04 -0.01c-7.59,40.21 -19.08,77.56 -34.46,112.11l-0.2 0.21c-15.39,34.06 -33.3,65.05 -53.68,93 -20.57,28.21 -43.79,53.52 -69.61,75.92l-0.2 0.21c-25.66,22.03 -53.17,41.28 -82.48,57.61 -28.77,16.03 -59.69,29.41 -92.75,40.03 -32.56,10.53 -65.35,18.35 -98.22,23.45 -33.73,5.23 -67.83,7.84 -102.14,7.84 -29.05,0 -58.82,-1.99 -89.21,-5.87 -26.99,-3.46 -54.57,-8.51 -82.66,-15.11 -2.54,0.59 -5.41,1.34 -8.64,2.25l-0.19 0c-6.27,1.77 -13.66,4.27 -22.21,7.59 -9.2,3.58 -17.52,7.29 -24.97,11.16l0.04 0.08c-8.08,4.22 -15.97,8.86 -23.66,13.96l0.05 0.07c-8.6,5.94 -15.95,11.56 -21.81,16.77l0.08 0.1c-6.3,5.61 -11.93,11.36 -16.77,17.21l0.03 0.02c-3.44,4.32 -5.9,8.33 -7.31,12.02 -0.74,1.95 -1.22,4.06 -1.42,6.32 2.44,2.14 6.45,4.46 12.05,6.94l0.19 0c12.18,5.48 26.39,10.64 42.54,15.4 17.03,5.04 36.47,9.73 58.22,14.09l-0.02 0.07c19.73,3.73 52.04,9.18 97.41,16.41 45.55,7.24 94.06,14.67 144.34,22l1.36 0.2c61,10.58 115.1,20.88 162.39,30.93 47.58,10.12 86.16,19.57 115.73,28.39l0.39 0.2c31.08,9.57 60.76,20.62 88.89,33.19 27.66,12.38 54,26.37 78.88,42.03l0.38 0c25.17,16.07 48.42,34.29 69.74,54.73 21.4,20.52 40.19,42.76 56.35,66.81l0 0.2c17.46,26.11 30.42,54.84 38.88,86.08 8.3,30.72 12.47,63.91 12.47,99.49 0,32.99 -3,64.21 -9.03,93.47 -6.09,29.63 -15.43,57.24 -28,82.63l0.07 0.04c-11.9,24.21 -26.09,47.08 -42.53,68.49 -16.12,21.02 -34.26,40.22 -54.38,57.51 -19.74,16.98 -40.85,32.37 -63.27,46.1 -21.89,13.41 -45.56,25.49 -70.97,36.15 -24.86,10.43 -49.88,19.49 -75,27.3 -25.46,7.9 -51.61,14.81 -78.34,20.78l-0.19 0c-26.65,5.73 -53.23,10.53 -79.78,14.37 -27.32,3.97 -54.13,6.94 -80.49,8.93 -24.25,1.83 -49.8,3.25 -76.36,4.27 -28.89,1.1 -53.86,1.63 -75.24,1.63 -37.48,0 -74.49,-1.78 -111.18,-5.43 -36.28,-3.62 -70.55,-9.03 -102.87,-16.33l0.01 -0.04c-33.36,-7.35 -64.59,-16.78 -93.53,-28.32 -29.07,-11.58 -56.1,-25.48 -80.96,-41.71l0.02 -0.04c-25.46,-16.4 -48.13,-35.03 -68.01,-55.82 -20.34,-21.29 -37.82,-44.73 -52.41,-70.29l0 -0.21c-14.98,-26.44 -26.28,-55.29 -33.73,-86.46 -7.26,-30.34 -10.96,-62.76 -10.96,-97.14 0,-18.59 1.68,-37.96 5.11,-58 3.33,-19.5 8.15,-38.37 14.49,-56.54l0.02 0.01c6.05,-17.9 13.31,-35.58 21.76,-52.9 5.33,-10.93 11.03,-21.55 17.09,-31.84 -4.26,1.6 -8.61,3.16 -13.07,4.67l0.02 0.06c-22.2,7.58 -44.46,13.36 -66.57,17.21 -22.69,3.96 -44.8,5.97 -66.08,5.97 -28.9,0 -56.43,-5.84 -82.61,-17.46l0.03 -0.08c-25.49,-11.33 -49.31,-27.98 -71.51,-49.86 -23.56,-23.22 -42.19,-53.97 -55.93,-92.23 -3.27,-9.1 -6.26,-18.65 -8.98,-28.68 -16.35,15.65 -32.99,30.31 -49.9,43.95 -39.1,31.51 -80.17,58.03 -123.08,79.34l0.04 0.08c-42.73,21.44 -87.33,37.65 -133.71,48.55 -46.43,10.91 -93.76,16.4 -141.92,16.4 -58.75,0 -112.33,-8.51 -160.56,-25.51 -49.56,-17.46 -92.65,-43.61 -129.09,-78.42 -37.32,-35.63 -65.36,-79.01 -84.07,-130.22 -12.04,-33 -20.1,-68.91 -24.16,-107.76 -19.33,40.12 -41.8,78.19 -67.43,114.21 -53.54,75.34 -116.21,132.15 -187.96,170.29 -71.91,38.23 -151.96,57.4 -240.09,57.4 -46.71,0 -90.28,-2.95 -130.51,-8.83 -40.46,-5.91 -77.12,-14.92 -109.76,-26.99 -27.87,-10.25 -53.27,-21.33 -76.24,-33.23l0 573.28 0 52.32 -49.45 0 -191.02 0 -49.45 0 0 -52.32 0 -1025.15c-4.28,16.39 -9.03,32.58 -14.24,48.54 -29.22,89.54 -72.8,171.33 -130.68,245.42l-0.19 0c-59.34,75.45 -127.93,132.17 -205.73,170.05 -77.85,37.91 -164.24,56.91 -259.15,56.91 -108.31,0 -204.28,-18.16 -287.87,-54.35 -85.33,-36.95 -156.79,-92.2 -214.34,-165.62l0 -0.2c-56.38,-72.42 -98.61,-156.16 -126.61,-251.24 -27.69,-93.98 -41.57,-198.77 -41.57,-314.4 0,-104.95 14.89,-201.57 44.78,-289.86 17.02,-50.28 38.94,-97.81 65.78,-142.56 -43.67,1.03 -83.63,6.7 -119.86,17.04 -39.2,11.2 -74.21,27.86 -104.99,50.03l-0.02 -0.04c-32.38,23.68 -58.89,46.84 -79.4,69.49 -15.7,17.33 -27.55,33.96 -35.51,49.87l0 956.34 0 52.32 -49.45 0 -190.61 0 -49.45 0 0 -52.32 0 -411.68c-1.01,3.71 -2.04,7.41 -3.09,11.1 -26.1,91.46 -65.47,174.25 -118.19,248.37 -53.52,75.32 -116.15,132.11 -187.87,170.25 -71.94,38.26 -152.01,57.44 -240.18,57.44 -46.71,0 -90.28,-2.95 -130.51,-8.83 -40.46,-5.91 -77.12,-14.92 -109.75,-26.99 -27.88,-10.25 -53.28,-21.33 -76.25,-33.23l0 573.28 0 52.32 -49.45 0 -191.02 0 -49.46 0 0 -52.32 0 -1758.34 0.16 0c-0.77,-26.71 -2.11,-57.23 -3.99,-91.55 -1.68,-30.76 -4.06,-66.77 -7.11,-107.93l-4.19 -56.41 53.44 0 182.78 0 42.17 0 6.5 44.35zm2066.88 1198.49c29.28,0 56.47,-3.57 81.47,-10.72 24.52,-7.02 47.01,-17.39 67.4,-31.13l0.19 -0.2c20.96,-13.94 42.24,-33.95 63.87,-60.09 22.67,-27.38 45.8,-61.75 69.47,-103.16 22.11,-38.84 38.75,-84.84 49.9,-137.98 11.46,-54.72 17.2,-117.81 17.2,-189.33 0,-60.55 -7.77,-117.83 -23.26,-171.79 -15.61,-54.39 -39.15,-106.28 -70.55,-155.66 -29.2,-45.92 -64.96,-80.26 -107.19,-102.95 -42.76,-22.97 -93.1,-34.5 -150.98,-34.5 -58.5,0 -109.64,11.03 -153.35,33.13 -43.13,21.81 -80.13,54.87 -110.94,99.18l-0.19 0.21c-31.97,45.79 -56.04,99.16 -72.22,160.04 -16.53,62.19 -24.78,132.48 -24.78,210.8 0,66.91 5.88,125.68 17.64,176.24 11.35,48.8 28.09,90.16 50.2,123.94 24.03,36.93 47.96,68.31 71.75,94.04l0.2 0.2c22.9,24.77 45.35,44.11 67.31,57.95l0.19 0c21.99,13.87 45.78,24.31 71.35,31.25 25.82,7.01 54.26,10.55 85.3,10.55zm1201.97 -987.05c-28.38,0 -55.81,1.64 -82.18,4.95 -26.24,3.3 -51.67,8.23 -76.23,14.82l-0.02 -0.08c-24.97,6.88 -50.96,16.17 -77.89,27.94 -18.72,8.18 -37.89,17.58 -57.49,28.21l0 814.37c10.02,8.22 21.3,16.05 33.85,23.48 20.42,12.1 43.87,22.96 70.33,32.55l0.2 0.2c25.88,9.46 54.7,16.62 86.42,21.52 31.57,4.89 65.92,7.3 103,7.3 51.48,0 95.84,-10.72 133,-32.14 36.88,-21.26 67.94,-53.74 93.07,-97.36 27.08,-46.88 47.48,-100.82 61.2,-161.92 14,-62.26 20.98,-131.86 20.98,-208.88 0,-80.99 -7.36,-151.68 -22.14,-212.06 -14.32,-58.54 -35.55,-107.81 -63.72,-147.85 -27.07,-38.71 -58.83,-67.55 -95.2,-86.47 -36.61,-19.03 -79.03,-28.57 -127.19,-28.57zm1329.52 500.23c-67.44,3.26 -129.41,11.15 -185.89,23.7 -68.15,15.13 -128.04,37.21 -179.63,66.24l-0.2 0c-47.76,26.78 -83.1,58.77 -106.03,95.91l0 0.21c-22.23,36.01 -33.36,78.14 -33.36,126.36 0,30.16 3.63,55.63 10.89,76.38 6.35,18.15 15.64,32.79 27.84,43.86 13.92,12.65 30.37,22.23 49.36,28.63 20.12,6.79 43.85,10.24 71.21,10.24 36.97,0 73.02,-4.33 108.23,-12.99 35.76,-8.78 70.82,-21.91 105.28,-39.36 35.41,-18.01 66.08,-35.61 91.97,-52.71 15.8,-10.45 29.25,-20.39 40.31,-29.81l0 -336.66zm965.1 46.48c22.07,0 42.1,-1.85 60.03,-5.54 17.19,-3.53 32.68,-8.72 46.4,-15.56 14.1,-7.02 26.75,-15.38 37.88,-25.08 11.01,-9.59 20.84,-20.69 29.41,-33.31l0.39 -0.61c9.24,-13.17 17.25,-27.74 23.99,-43.67 6.82,-16.15 12.38,-33.89 16.6,-53.12 4.59,-21.07 8.12,-43.29 10.48,-66.67 2.26,-22.31 3.43,-46.57 3.43,-72.83 0,-18.68 -1.25,-36.71 -3.69,-54.09 -2.54,-18.01 -6.15,-35.15 -10.8,-51.42l-0.11 0.03c-4.94,-16.64 -10.84,-31.79 -17.77,-45.5 -6.78,-13.41 -14.94,-26.16 -24.52,-38.3l0.01 -0.01c-9.27,-11.54 -19.53,-21.83 -30.8,-30.79 -11.38,-9.06 -24.59,-17.33 -39.67,-24.76 -14.18,-6.98 -29.77,-12.25 -46.69,-15.77 -17.73,-3.69 -37.19,-5.54 -58.3,-5.54 -26.41,0 -50.21,2.17 -71.24,6.44 -20.23,4.12 -38.07,10.12 -53.36,17.95l-0.04 -0.09c-15.79,8.2 -30.06,17.7 -42.85,28.54 -12.62,10.7 -23.49,22.4 -32.59,35.09l-0.19 0.41c-19.26,26.47 -32.81,56.64 -40.62,90.47l-0.2 0.61c-4.12,16.87 -7.25,34.97 -9.48,54.09 -2.17,18.7 -3.22,37.76 -3.22,57.1 0,19.4 1.3,37.83 3.88,55.26 2.71,18.27 6.76,36.44 12.18,54.39 5.18,17.17 11.8,33.55 19.85,49.12 7.74,14.98 17.08,29.38 28,43.19l0.2 0.4c10.16,13.05 21.79,24.94 34.77,35.64 13.41,11.06 28.22,20.87 44.27,29.38l0.04 -0.07c15.47,8.09 32.49,14.2 51.03,18.3 18.98,4.2 40.08,6.31 63.29,6.31zm-261.65 630.23c-10.13,12.68 -19.53,25.46 -28.18,38.37 -12.59,18.78 -23.1,37.22 -31.48,55.34l0 0.4c-8.6,18.22 -14.89,35.41 -18.8,51.5 -3.79,15.55 -5.68,31.25 -5.68,47.08 0,22.2 2.01,41.62 6.04,58.23 3.77,15.48 9.43,29.28 17,41.39 8.61,13.78 18.08,25.8 28.41,36.02 10.21,10.11 22.02,19.17 35.45,27.17 14.26,8.49 29.16,15.57 44.69,21.28l-0.02 0.06c15.92,5.84 32.91,10.48 50.87,13.92l0.02 -0.12c18.86,3.43 38.22,6.09 58.03,7.9 18.9,1.74 37.92,2.64 57.03,2.64 12.31,0 24.39,-0.28 35.78,-0.9l0.2 0c13.16,-0.7 26.84,-1.71 40.86,-3.07l0.19 0c14.08,-1.33 29.52,-3.23 46.44,-5.73 15.24,-2.26 31.21,-5.08 47.98,-8.5l0.58 0c16.07,-3.08 31.95,-6.73 47.58,-10.97 15.3,-4.15 30.96,-9.06 46.97,-14.71l0.58 -0.2c14.48,-4.93 28.57,-10.66 42.18,-17.13 13.41,-6.38 25.81,-13.27 37.14,-20.57 10.97,-7.07 20.73,-14.55 29.14,-22.39l0 -0.2c8.49,-7.91 15.78,-16.13 21.73,-24.65 5.01,-7.17 8.76,-14.81 11.22,-22.88 2.44,-8.04 3.67,-17.15 3.67,-27.31 0,-9.17 -1.28,-17.75 -3.84,-25.62 -2.62,-8.06 -6.4,-15.46 -11.33,-22.03l-0.38 -0.21c-6.68,-9.1 -14.43,-17.57 -23.13,-25.38 -9.37,-8.4 -20.01,-16.32 -31.87,-23.79 -12.68,-7.96 -26.75,-15.62 -42.05,-22.95 -16.25,-7.79 -33.35,-15.08 -51.13,-21.89l0 0c-17.39,-6.35 -42.04,-13.5 -73.87,-21.41 -33.12,-8.24 -72.08,-16.84 -116.77,-25.79l0 0.06c-35.51,-5.69 -63.11,-9.94 -82.77,-12.75 -23.83,-3.4 -44.46,-6.08 -61.78,-8.02l-0.2 0c-21.39,-2.4 -37.47,-4.14 -48.32,-5.21 -10.03,-1 -24.3,-2.27 -42.55,-3.77 -6.15,-0.5 -16.45,-1.43 -35.39,-3.21l-0.2 -0.02zm1575.47 -676.71c-67.43,3.26 -129.4,11.15 -185.88,23.7 -68.16,15.13 -128.04,37.21 -179.64,66.24l-0.19 0c-47.76,26.78 -83.11,58.77 -106.04,95.91l0 0.21c-22.23,36.01 -33.35,78.14 -33.35,126.36 0,30.16 3.62,55.63 10.89,76.38 6.34,18.15 15.64,32.79 27.83,43.86 13.93,12.65 30.38,22.23 49.37,28.63 20.12,6.79 43.85,10.24 71.21,10.24 36.97,0 73.02,-4.33 108.23,-12.99 35.76,-8.78 70.82,-21.91 105.28,-39.36 35.41,-18.01 66.08,-35.61 91.97,-52.71 15.81,-10.45 29.24,-20.38 40.3,-29.81l0 -336.66zm2119.63 471.53c53.08,0 108.73,-10.5 166.87,-31.44 52.79,-19.02 107.64,-46.53 164.48,-82.48l0 -823.19c-33.02,-8.79 -67.06,-15.77 -102.1,-20.85 -47.13,-6.82 -96.98,-10.3 -149.62,-10.3 -68.25,0 -126.24,12.04 -173.92,36.08 -46.08,23.21 -83.18,58.08 -111.31,104.5 -30.6,50.51 -53.59,104.29 -68.89,161.26 -15.35,57.14 -23.05,117.93 -23.05,182.3 0,69.38 7.7,133.18 23.04,191.35 15.23,57.75 38.01,110.55 68.32,158.37 29.06,45.89 61.19,80.1 96.3,102.49 33.28,21.24 69.92,31.91 109.88,31.91zm1427.71 -471.53c-67.44,3.26 -129.41,11.15 -185.89,23.7 -68.15,15.13 -128.04,37.21 -179.64,66.24l-0.19 0c-47.76,26.78 -83.11,58.77 -106.04,95.91l0 0.21c-22.23,36.01 -33.35,78.14 -33.35,126.36 0,30.16 3.62,55.63 10.89,76.38 6.35,18.15 15.64,32.79 27.83,43.86 13.93,12.65 30.39,22.23 49.37,28.63 20.12,6.79 43.85,10.24 71.21,10.24 36.97,0 73.01,-4.33 108.23,-12.99 35.75,-8.78 70.81,-21.91 105.27,-39.36 35.41,-18.01 66.09,-35.61 91.97,-52.71 15.81,-10.45 29.25,-20.39 40.32,-29.81l0 -336.66z"/>
  <path class="fil6" d="M126.23 5917.77c36.05,-40.12 82.08,-78.3 138.06,-114.74 53.95,-35.11 116.65,-68.62 188.07,-100.69l0.37 0c74.1,-33.13 151.68,-57.99 232.74,-74.54 81.09,-16.57 164.95,-24.85 251.52,-24.85 215.73,0 390.17,60.64 522.57,181.91 69.57,62.76 121.76,138.44 156.71,226.83 34.16,86.42 51.15,183.06 51.15,289.81l0 913.4c0,75.45 2.65,135.22 7.85,179.3 4.42,37.49 9.75,62.29 15.94,74.35l0.37 0.8c2.45,4.84 5.29,8.14 8.45,9.87 6.83,3.76 18.04,5.61 33.54,5.61 19.31,0 37.17,-0.78 53.01,-2.46 16.86,-1.77 33.7,-4.46 50.31,-8.11l82.24 -18.14 90.64 284.31 -42.78 44.94c-22.15,23.26 -48.34,43.74 -78.38,61.39 -27.64,16.25 -59.38,30.5 -95.03,42.69 -33.67,11.63 -67.46,20.46 -101.05,26.4 -34.79,6.12 -68.48,9.25 -100.73,9.25 -45.52,0 -88.88,-9.31 -130.16,-27.83 -39.63,-17.77 -76.86,-44.09 -111.68,-78.8 -37.22,-37.06 -66.51,-85.79 -87.96,-146.14l-2.84 -8.18c-15.92,14.53 -32.01,28.42 -48.25,41.65 -58.56,47.7 -120.23,87.92 -184.85,120.37l0.07 0.15c-64.14,32.54 -131.24,57.17 -201.16,73.77 -70.05,16.63 -141.22,25.02 -213.31,25.02 -88.55,0 -169.6,-13.07 -242.9,-39.17 -75.46,-26.88 -141.38,-67.4 -197.54,-121.57l-0.19 0.22c-57.44,-55.44 -100.65,-122.96 -129.43,-202.63 -27.72,-76.75 -41.63,-163.23 -41.63,-259.55 0,-101.91 15.57,-195.88 46.74,-281.75 31.52,-86.88 78.61,-163.91 141.2,-230.89 59.73,-64.3 129.63,-119.4 209.42,-165.52 77.46,-44.78 165.08,-81.28 262.61,-109.76l0.37 -0.4c94.05,-27.18 193.95,-47.58 299.53,-61.12 75.88,-9.72 154.54,-15.96 235.92,-18.66l0 -58.9c0,-136.82 -22.13,-225.74 -66.36,-266.18 -23.62,-21.6 -51.28,-37.95 -82.9,-48.99 -33.71,-11.77 -72.67,-17.66 -116.81,-17.66 -61.08,0 -117.93,6.69 -170.6,19.98 -51.76,13.06 -99.98,32.56 -144.65,58.42l-0.37 0c-49.29,28.22 -91.48,54.77 -126.56,79.49 -33.09,23.33 -60.03,45.34 -80.8,65.86l-76.17 75.23 -261.38 -360.27 57.05 -63.5zm1069.56 889.72c-88.46,5.4 -170.22,16.52 -245.29,33.37 -98.55,22.11 -184.47,53.98 -257.66,95.61l-0.38 0.4c-66.61,37.77 -115.68,82.45 -147.16,133.99 -30.12,49.31 -45.19,107.49 -45.19,174.5 0,41.91 4.84,76.91 14.54,104.92 7.95,22.96 19.38,41.29 34.24,54.93 18.2,16.68 39.69,29.34 64.5,37.8 27.12,9.25 59.65,13.94 97.66,13.94 52.66,0 103.88,-6.19 153.79,-18.59 50.83,-12.62 100.66,-31.44 149.52,-56.43l-0.07 -0.16c52,-26.76 96.43,-52.42 133.18,-76.97 18.45,-12.33 34.58,-24.11 48.33,-35.32l0 -462z"/>
  <path class="fil6" d="M2231.1 6752.93l39.95 0c89.59,0 168.36,-9.63 237.29,-28.88 32.97,-9.4 63.24,-21.01 90.83,-34.78 26.83,-13.39 51.56,-29.17 74.18,-47.19l0.17 0.27c20.5,-16.52 38.89,-35.44 55.05,-56.59 15.43,-20.22 29.06,-43.52 40.79,-69.8l0.28 0.16c10.9,-25.03 19.24,-52.58 24.92,-82.47 5.74,-30.36 8.66,-64.33 8.66,-101.82 0,-22.87 -1.75,-44.18 -5.28,-63.89 -3.57,-19.85 -8.68,-38.17 -15.38,-54.95 -6.77,-16.46 -15.16,-31.79 -25.13,-45.94l-0.37 -0.41c-10.06,-14.3 -22.3,-27.95 -36.73,-40.95l0.12 -0.15c-14.21,-12.54 -30.61,-23.96 -49.06,-34.13 -19.43,-10.71 -41.01,-19.92 -64.63,-27.52 -25.18,-8.08 -52.26,-14.19 -81.02,-18.19 -28.34,-3.95 -60.86,-5.96 -97.51,-5.96 -19.2,0 -38.19,1.31 -56.96,3.77 -20.33,2.67 -39.71,6.34 -58.18,10.87l0.06 0.27c-24.7,6.42 -45.39,12.39 -61.79,17.82 -19.78,6.56 -38.5,13.5 -56.01,20.8 -16.93,7.39 -34.55,15.72 -53.02,25.27 -16.89,8.71 -31.98,17.23 -44.99,25.57l0.09 0.18c-14.66,9.48 -27.54,18.47 -38.63,26.97 -11.19,8.57 -19.8,15.76 -25.74,21.54l-80.74 78.68 -241.67 -379.92 79.57 -59.41c16.01,-11.96 33.71,-24.39 53.13,-37.35 17.63,-11.75 37.94,-24.62 61.07,-38.65l0.07 0.14c24.54,-15.09 48.31,-28.38 71.43,-40.03 25.72,-12.95 51.9,-24.94 78.6,-36.05l0.75 0c29.58,-12.11 58.39,-22.53 86.36,-31.24 28.3,-8.81 59.36,-17.12 93.09,-24.86l0.03 0.13c33.45,-8.02 67.6,-13.94 102.36,-17.76 36.76,-4.05 72.73,-6.05 107.94,-6.05 51.19,0 101.62,3.3 151.33,9.86 49.54,6.53 98.12,16.38 145.78,29.54 48.21,13.31 94.21,30.5 137.85,51.37 43.78,20.94 85.11,45.84 123.82,74.44l0.37 0c38.86,29.03 74.25,62.66 106.12,100.65 31.55,37.58 59.04,79.11 82.4,124.3l0.37 0c24.13,47.05 42.28,98.29 54.3,153.66 11.62,53.54 17.48,110.55 17.48,170.96 0,49.28 -3.92,97.28 -11.8,143.97 -7.95,47.1 -19.95,91.31 -36.04,132.61 -15.6,40.04 -33.66,77.45 -54.12,111.99 -20.86,35.21 -44.3,67.73 -70.27,97.42 -24.78,28.33 -51.95,54.68 -81.48,79.13 -9.06,7.5 -18.21,14.7 -27.42,21.61 36.8,17.32 71.2,37.56 103.25,60.64 35.59,25.62 68.74,55.09 99.45,88.28 30.82,33.27 58.37,70.74 82.54,112.37 23.58,40.58 43.78,84.95 60.47,132.99l0 0.41c16.45,47.85 28.9,100.52 37.18,157.84 8.16,56.53 12.31,115.67 12.31,177.28 0,78.06 -6.25,151.32 -18.7,219.71 -12.75,70.03 -32.1,134.95 -57.96,194.7 -25.56,59.05 -56.66,113.05 -93.2,161.97 -36.62,49.02 -78.53,92.59 -125.66,130.74 -46.84,38.05 -97.65,70.56 -152.41,97.67 -54.23,26.85 -112.83,48.83 -175.7,66.12 -60.73,16.79 -125.15,29.36 -193.1,37.72 -68.13,8.41 -138.6,12.59 -211.27,12.59 -26.68,0 -54.9,-1.18 -84.45,-3.58 -27.75,-2.27 -55.84,-5.67 -83.97,-10.28 -28.31,-4.41 -56.24,-9.8 -83.74,-16.12 -27.17,-6.24 -54.32,-13.55 -81.37,-21.71l-1.12 -0.41c-27.28,-8.62 -53.24,-17.8 -77.63,-27.48 -25.12,-9.99 -50.08,-21.11 -74.81,-33.45 -25.7,-12.83 -48.86,-25.97 -69.44,-39.19 -22.18,-14.3 -42.88,-29.53 -61.95,-45.5l-66.46 -55.62 212.58 -405.84 85.47 62.98c37.42,27.55 73.21,51.19 107.44,70.89 33.89,19.5 67.24,35.81 100.08,48.95l-0.08 0.26c30.11,11.76 61.83,20.95 95.28,27.37 32.34,6.22 65.63,9.4 99.95,9.4 193.65,0 334.16,-39.55 421.96,-118.65l0.38 0c40.15,-35.99 70.37,-82.48 90.7,-139.4 21.9,-61.33 32.81,-135.97 32.81,-223.85 0,-44.84 -3.04,-85.9 -9.03,-123.12 -5.9,-36.61 -14.27,-68.98 -25.03,-96.95l-0.13 0.06c-11.02,-28.06 -24.39,-53.27 -40.12,-75.58 -15.65,-22.18 -33.98,-42.01 -54.99,-59.48l-0.38 -0.41c-21.68,-18.19 -46,-34.07 -72.79,-47.49 -28.04,-14.06 -58.93,-25.63 -92.53,-34.61 -35.45,-9.41 -74.04,-16.63 -115.82,-21.56 -40.9,-4.83 -85.9,-7.27 -135.01,-7.27l-231.63 0 0 -412.37 96 0z"/>
 </g>
</svg>
